#N canvas 0 32 1366 736 10;
#X declare -lib mrpeach/packOSC;
#X declare -lib mrpeach/udpsend;
#X declare -lib mrpeach/udpreceive;
#X declare -lib mrpeach/unpackOSC;
#X declare -lib mrpeach/routeOSC;
#N canvas 457 32 453 736 config 0;
#X obj 486 321 route 1;
#X obj 486 -43 inlet;
#X obj 431 390 loadbang;
#X obj 496 17 r conf_dev_connect;
#X obj 506 57 r conf_dev_disconnect;
#X msg 506 77 disconnect;
#X obj 842 261 s conf_dev_bs;
#X obj 894 301 s conf_dev_from;
#X obj 808 184 r send_to_device;
#X obj 486 -23 unpack s;
#X obj 486 201 udpsend;
#X obj 791 221 route received total from multicast;
#X obj 704 2 r conf_dev_status;
#X obj 66 241 route 1;
#X obj 11 310 loadbang;
#X msg 704 22 status;
#X obj 444 346 s conf_send_r;
#X obj 66 221 r conf_send;
#X msg 66 294 \; conf_send_r color 16 6 22;
#X msg 105 327 \; conf_send_r color 13 3 22;
#X msg 486 374 \; conf_dev_status color 16 6 0;
#X msg 525 407 \; conf_dev_status color 13 3 0;
#X obj 791 281 s conf_dev_sb;
#X obj 101 101 cnv 14 373 14 empty empty empty 20 12 0 14 -233017 -66577
0;
#X obj 106 121 bng 16 250 50 0 conf_list_devices _null empty 17 7 0
10 -204786 -4034 -1;
#X obj 106 143 bng 16 250 50 0 conf_dev_disconnect _null Disconnect
17 7 0 10 -261234 -258113 -1;
#X obj 400 121 tgl 30 0 _null_snd conf_dev_status empty 17 7 0 10 -258699
-261689 -262144 0 1;
#X floatatom 238 183 7 0 230400 1 - conf_dev_bs _null_snd;
#X floatatom 358 183 7 0 230400 0 - conf_dev_sb _null_snd;
#X text 432 121 Device;
#X text 432 131 status;
#X obj 195 38 r conf_dev_from;
#X floatatom 238 161 3 0 0 1 . - -;
#X floatatom 268 161 3 0 0 1 . - -;
#X floatatom 298 161 3 0 0 1 . - -;
#X floatatom 328 161 3 0 0 1 : - -;
#X obj 195 58 unpack f f f f f;
#X text 402 182 Bytes recv;
#X text 282 182 Total bytes;
#X floatatom 358 161 4 0 0 0 - - -;
#X obj 106 183 bng 16 250 50 0 conf_dev_status _null empty 17 7 0 10
-204800 -4032 -1;
#X obj 400 157 tgl 14 0 conf_send conf_send_r Send 17 7 0 10 -258699
-261689 -1 0 1;
#X text 147 160 Receiving from;
#X text 122 182 Get status;
#X text 105 99 Motherboard;
#X obj 954 76 spigot;
#X obj 987 56 r dispatch_debug;
#X obj 954 96 print receiving;
#X obj 848 59 unpackOSC;
#X obj 848 112 s osc_receive;
#X msg 486 -3 connect \$1 7900;
#X msg 496 37 connect 192.168.0.50 7900;
#X msg 516 97 connect 127.0.0.1 7900;
#X obj 704 42 udpreceive 7901;
#X text 122 120 Connect to 192.168.0.50:7900;
#X obj 74 -52 loadbang;
#X obj 74 -12 import mrpeach/packOSC;
#X obj 74 -32 import mrpeach/udpsend;
#X obj 224 -32 import mrpeach/udpreceive;
#X obj 224 -12 import mrpeach/unpackOSC;
#X obj 74 8 import mrpeach/routeOSC;
#X connect 0 0 20 0;
#X connect 0 1 21 0;
#X connect 1 0 9 0;
#X connect 2 0 21 0;
#X connect 3 0 51 0;
#X connect 4 0 5 0;
#X connect 5 0 10 0;
#X connect 8 0 10 0;
#X connect 9 0 50 0;
#X connect 10 0 0 0;
#X connect 10 0 16 0;
#X connect 11 0 22 0;
#X connect 11 1 6 0;
#X connect 11 2 7 0;
#X connect 12 0 15 0;
#X connect 13 0 18 0;
#X connect 13 1 19 0;
#X connect 14 0 19 0;
#X connect 15 0 53 0;
#X connect 17 0 13 0;
#X connect 31 0 36 0;
#X connect 36 0 32 0;
#X connect 36 1 33 0;
#X connect 36 2 34 0;
#X connect 36 3 35 0;
#X connect 36 4 39 0;
#X connect 45 0 47 0;
#X connect 46 0 45 1;
#X connect 48 0 45 0;
#X connect 48 0 49 0;
#X connect 50 0 10 0;
#X connect 51 0 10 0;
#X connect 52 0 10 0;
#X connect 53 0 48 0;
#X connect 53 1 11 0;
#X connect 55 0 57 0;
#X connect 55 0 56 0;
#X connect 55 0 60 0;
#X connect 55 0 58 0;
#X connect 55 0 59 0;
#X coords 0 -1 1 1 375 104 2 100 100;
#X restore 60 -9183 pd config;
#X text 62 -9200 Custom device;
#N canvas 684 32 682 736 dispatch 0;
#X obj 595 -68 r ctl_x;
#X obj 623 -48 r ctl_y;
#X obj 652 -28 r ctl_z;
#X obj -282 707 s send_to_device;
#X obj 595 41 pack f f f;
#X obj -282 627 packOSC;
#X obj 788 52 pack f f f;
#X obj 803 -28 r disp_width;
#X obj 831 -8 r disp_depth;
#X obj 860 12 r disp_height;
#X obj 611 7 t b;
#X obj 0 1058 s heartbeat_hb_0;
#X msg 595 61 sendtyped /goto fff \$1 \$2 \$3;
#X obj 1246 -19 r disp_pt0_x;
#X obj 1266 1 r disp_pt0_y;
#X obj 1219 1 float;
#X obj 1266 21 float;
#X obj 1219 41 pack f f;
#X obj 1349 -68 r disp_add_motors;
#X obj 1349 1 float;
#X obj 1396 21 float;
#X obj 1349 41 pack f f;
#X obj 1479 1 float;
#X obj 1526 21 float;
#X obj 1479 41 pack f f;
#X obj 1376 -19 r disp_pt1_x;
#X obj 1396 1 r disp_pt1_y;
#X obj 1506 -19 r disp_pt2_x;
#X obj 1526 1 r disp_pt2_y;
#X obj 0 912 routeOSC /ok /nok;
#X msg 76 1025 \; heartbeat_hb_0 color 0 13 22;
#X msg 27 992 \; heartbeat_hb_0 color 0 16 22;
#X obj 0 972 t b b;
#X obj 49 972 t b b;
#X obj 919 93 r disp_del_motors;
#X obj -249 647 r conf_send;
#X obj -282 667 spigot;
#X obj 67 322 unpack f f f;
#X obj 136 390 s ctl_rtn_z;
#X obj 101 370 s ctl_rtn_y;
#X obj 67 350 s ctl_rtn_x;
#X obj -290 727 s send_to_viz;
#X obj 1100 603 r receive_from_viz;
#X obj 1100 623 unpackOSC;
#X obj 1100 663 routeOSC /ok /nok;
#X obj 1100 683 t b b;
#X obj 1149 683 t b b;
#X obj 1100 643 routeOSC /heartbeat;
#X obj -95 145 tgl 15 0 dispatch_debug dispatch_debug_r Debug 17 7
0 10 -262144 -1 -1 0 1;
#X obj -171 627 spigot;
#X obj -138 607 r dispatch_debug;
#X obj -171 647 print sending;
#X obj 870 669 s osc_send;
#X obj -226 582 r osc_send;
#X obj -95 125 bng 15 250 50 0 dispatch_save dispatch_save_r Save 17
7 0 10 -262144 -1 -1;
#X obj 827 147 r dispatch_save;
#X obj -189 101 cnv 14 168 14 empty empty empty 20 12 0 14 -233017
-66577 0;
#X text -187 99 Configuration;
#X obj -185 165 bng 15 250 50 0 dispatch_auth dispatch_auth_r Auth
17 7 0 10 -258699 -261689 -1;
#X msg 134 236 \; dispatch_auth_r color 16 6 22;
#X msg 275 269 \; dispatch_auth_r color 13 3 22;
#X obj 494 138 r dispatch_auth;
#X obj 494 158 t b;
#X msg 494 178 send /config/auth;
#X obj 57 1082 t b b;
#X obj 106 1082 t b b;
#X obj 114 1192 t b b;
#X obj 163 1192 t b b;
#X obj 170 1302 t b b;
#X obj 219 1302 t b b;
#X obj 228 1412 t b b;
#X obj 277 1412 t b b;
#X msg 1176 736 \; heartbeat_hb_11 color 0 13 22;
#X msg 1127 703 \; heartbeat_hb_11 color 0 16 22;
#X obj 1100 794 s heartbeat_hb_11;
#X msg 84 1102 \; heartbeat_hb_10 color 0 16 22;
#X msg 133 1135 \; heartbeat_hb_10 color 0 13 22;
#X obj 57 1168 s heartbeat_hb_10;
#X msg 141 1212 \; heartbeat_hb_1 color 0 16 22;
#X msg 190 1245 \; heartbeat_hb_1 color 0 13 22;
#X obj 114 1278 s heartbeat_hb_1;
#X msg 197 1322 \; heartbeat_hb_2 color 0 16 22;
#X msg 246 1355 \; heartbeat_hb_2 color 0 13 22;
#X obj 170 1388 s heartbeat_hb_2;
#X msg 255 1432 \; heartbeat_hb_3 color 0 16 22;
#X msg 304 1465 \; heartbeat_hb_3 color 0 13 22;
#X obj 228 1498 s heartbeat_hb_3;
#X obj -185 125 bng 15 250 50 0 dispatch_load dispatch_load_r Load
17 7 0 10 -262144 -1 -1;
#X obj -185 145 bng 15 250 50 0 dispatch_get dispatch_get_r Get 17
7 0 10 -262144 -1 -1;
#X obj 0 -67 r osc_receive;
#X obj 0 932 routeOSC /mother /theEye /motor0 /motor1 /motor2;
#X obj 49 952 routeOSC /mother /theEye /motor0 /motor1 /motor2;
#X msg 788 72 sendtyped /config/stage/dimensions fff \$1 \$2 \$3;
#X msg 919 113 send /config/stage/deleteMotors;
#X msg 1349 98 sendtyped /config/stage/addMotor ff \$1 \$2;
#X obj 134 216 routeOSC /youAreMyMaster;
#X obj 134 11 routeOSC /auth /stage;
#X obj 957 147 r dispatch_get;
#X msg 957 167 send /config/get;
#X obj 195 31 routeOSC /dimensions /motor0 /motor1 /motor2;
#X obj 229 146 s disp_depth_r;
#X obj 195 166 s disp_width_r;
#X obj 264 186 s disp_height_r;
#X obj 195 118 unpack f f f;
#X obj 788 32 f;
#X obj 816 32 f;
#X obj 845 32 f;
#X obj 797 -48 t b b b;
#X obj 797 -68 r disp_update;
#X obj 260 71 s disp_pt0_x_r;
#X obj 317 91 s disp_pt0_y_r;
#X obj 325 111 s disp_pt1_x_r;
#X obj 382 131 s disp_pt1_y_r;
#X obj 390 71 s disp_pt2_x_r;
#X obj 447 91 s disp_pt2_y_r;
#X obj 260 51 unpack f f;
#X obj 325 51 unpack f f;
#X obj 390 51 unpack f f;
#X obj 304 -67 loadbang;
#X obj 624 211 inlet;
#X msg 624 251 sendtyped /config/load s \$1;
#X obj 429 211 r dispatch_load;
#X msg 429 231 sendtyped /config/load s base;
#X obj 964 211 inlet;
#X msg 964 251 sendtyped /config/saveAs s \$1;
#X obj 624 231 unpack s;
#X obj 964 231 unpack s;
#X msg 451 377 send /config/stage/calibrate;
#X obj -189 185 cnv 15 168 60 dispatch_calibrate_section dispatch_calibrate_section_r
Calibration 20 8 0 10 -24198 -1 0;
#X obj -184 205 bng 15 250 50 0 dispatch_calibrate dispatch_calibrate_r
Start 17 7 0 10 -258113 -261234 -1;
#X obj -94 205 bng 15 250 50 0 dispatch_calibrate_end dispatch_calibrate_end_r
End 17 7 0 10 -258113 -261234 -1;
#X obj -184 226 nbx 1 14 0 2 0 0 dispatch_calib_motor dispatch_calib_motor_r
Motor 22 7 0 10 -261682 -1 -1 0 256;
#X obj -114 226 nbx 5 14 -100 100 0 0 dispatch_calib_speed dispatch_calib_speed_r
Speed 56 7 0 10 -232576 -159808 -1 0 256;
#X msg -304 336 \; dispatch_calibrate_section_r color 13 6 22;
#X obj -304 316 r dispatch_calibrate;
#X obj -304 369 r dispatch_calibrate_end;
#X msg -304 389 \; dispatch_calibrate_section_r color 16 6 22;
#X obj -281 447 i 0;
#X obj -251 447 i 1;
#X obj -268 489 s joystick_calib_mode;
#X obj 451 357 r dispatch_calibrate;
#X obj 241 357 r dispatch_calibrate_end;
#X msg 371 607 sendtyped /config/stage/moveMotor if \$1 \$2;
#X obj 371 587 pack f f;
#X obj 371 518 r dispatch_calib_motor;
#X obj 416 538 r dispatch_calib_speed;
#X obj 378 563 t b;
#X obj -184 249 bng 15 250 50 0 dispatch_park dispatch_park_r Park
17 7 0 10 -4034 -204786 -1;
#X obj -94 249 bng 15 250 50 0 dispatch_unpark dispatch_unpark_r Unpark
17 7 0 10 -258113 -261234 -1;
#X obj 1001 357 r dispatch_park;
#X obj 1211 357 r dispatch_unpark;
#X msg 1211 377 send /config/stage/unparkAll;
#X msg 1001 377 send /config/stage/parkAll;
#X obj 1001 297 r dispatch_reset;
#X msg 1001 317 send /config/stage/resetAll;
#X obj -94 279 bng 15 250 50 0 dispatch_reset dispatch_reset_r Reset
17 7 0 10 -258113 -261234 -1;
#X msg 304 -47 \; dispatch_auth_r color 13 3 22 \; dispatch_calibrate_section_r
16 6 22 \; joystick_calib_mode 0 \;;
#X obj 201 702 unpack f f f f f;
#X obj 201 730 s ctl_rtn_dof;
#X obj 224 750 s ctl_rtn_dom;
#X obj 247 770 s ctl_rtn_d01;
#X obj 270 790 s ctl_rtn_d12;
#X obj 294 810 s ctl_rtn_d20;
#X obj 0 -9 routeOSC /heartbeat /iAmAt /config;
#X obj 288 890 s ctl_rtn_Vp01;
#X obj 322 910 s ctl_rtn_Vp12;
#X obj 357 930 s ctl_rtn_Vp20;
#X obj 288 862 unpack f f f;
#X obj 376 752 unpack f f f;
#X obj 376 780 s ctl_rtn_Vx;
#X obj 410 800 s ctl_rtn_Vy;
#X obj 445 820 s ctl_rtn_Vz;
#X obj -82 187 bng 13 250 50 0 dispatch_calibrate_restore dispatch_calibrate_restore_r
Restore 17 6 0 10 -258113 -261234 -1;
#X obj 241 417 r dispatch_calibrate_restore;
#X msg 241 437 send /config/stage/calibrateRestore;
#X obj 134 269 s dispatch_get;
#X obj 201 671 routeOSC /iAmAwayFrom /iAmGoingToAt /iAmMovingAt /iAmParked
;
#X obj 464 946 s ctl_rtn_parked;
#X obj 464 860 select 0 1;
#X obj -164 269 tgl 38 0 dispatch_parked_s dispatch_parked Parked 1
18 0 10 -225271 -24198 -1 0 1;
#X obj 464 966 s dispatch_parked;
#X msg 464 880 \; dispatch_parked color 6 16 22;
#X msg 492 913 \; dispatch_parked color 3 13 22;
#X msg 827 167 send /setup/save;
#X obj 563 710 print;
#X msg 241 377 send /motor/status;
#X connect 0 0 4 0;
#X connect 1 0 4 1;
#X connect 1 0 10 0;
#X connect 2 0 4 2;
#X connect 2 0 10 0;
#X connect 4 0 12 0;
#X connect 5 0 36 0;
#X connect 6 0 92 0;
#X connect 7 0 104 1;
#X connect 8 0 105 1;
#X connect 9 0 106 1;
#X connect 10 0 4 0;
#X connect 12 0 52 0;
#X connect 13 0 15 1;
#X connect 14 0 16 0;
#X connect 15 0 17 0;
#X connect 16 0 17 1;
#X connect 17 0 94 0;
#X connect 18 0 15 0;
#X connect 18 0 19 0;
#X connect 18 0 22 0;
#X connect 19 0 21 0;
#X connect 20 0 21 1;
#X connect 21 0 94 0;
#X connect 22 0 24 0;
#X connect 23 0 24 1;
#X connect 24 0 94 0;
#X connect 25 0 19 1;
#X connect 26 0 20 0;
#X connect 27 0 22 1;
#X connect 28 0 23 0;
#X connect 29 0 90 0;
#X connect 29 1 91 0;
#X connect 32 0 11 0;
#X connect 32 1 31 0;
#X connect 33 0 11 0;
#X connect 33 1 30 0;
#X connect 34 0 93 0;
#X connect 35 0 36 1;
#X connect 36 0 3 0;
#X connect 36 0 41 0;
#X connect 37 0 40 0;
#X connect 37 1 39 0;
#X connect 37 2 38 0;
#X connect 42 0 43 0;
#X connect 43 0 47 0;
#X connect 44 0 45 0;
#X connect 44 1 46 0;
#X connect 45 0 74 0;
#X connect 45 1 73 0;
#X connect 46 0 74 0;
#X connect 46 1 72 0;
#X connect 47 0 44 0;
#X connect 49 0 51 0;
#X connect 50 0 49 1;
#X connect 53 0 5 0;
#X connect 53 0 49 0;
#X connect 55 0 183 0;
#X connect 61 0 62 0;
#X connect 62 0 63 0;
#X connect 63 0 52 0;
#X connect 64 0 77 0;
#X connect 64 1 75 0;
#X connect 65 0 77 0;
#X connect 65 1 76 0;
#X connect 66 0 80 0;
#X connect 66 1 78 0;
#X connect 67 0 80 0;
#X connect 67 1 79 0;
#X connect 68 0 83 0;
#X connect 68 1 81 0;
#X connect 69 0 83 0;
#X connect 69 1 82 0;
#X connect 70 0 86 0;
#X connect 70 1 84 0;
#X connect 71 0 86 0;
#X connect 71 1 85 0;
#X connect 89 0 163 0;
#X connect 90 0 32 0;
#X connect 90 1 64 0;
#X connect 90 2 66 0;
#X connect 90 3 68 0;
#X connect 90 4 70 0;
#X connect 91 0 33 0;
#X connect 91 1 65 0;
#X connect 91 2 67 0;
#X connect 91 3 69 0;
#X connect 91 4 71 0;
#X connect 92 0 52 0;
#X connect 93 0 52 0;
#X connect 94 0 52 0;
#X connect 95 0 59 0;
#X connect 95 0 175 0;
#X connect 95 1 60 0;
#X connect 96 0 95 0;
#X connect 96 1 99 0;
#X connect 97 0 98 0;
#X connect 98 0 52 0;
#X connect 99 0 103 0;
#X connect 99 1 115 0;
#X connect 99 2 116 0;
#X connect 99 3 117 0;
#X connect 103 0 101 0;
#X connect 103 1 100 0;
#X connect 103 2 102 0;
#X connect 104 0 6 0;
#X connect 105 0 6 1;
#X connect 106 0 6 2;
#X connect 107 0 104 0;
#X connect 107 1 105 0;
#X connect 107 2 106 0;
#X connect 108 0 107 0;
#X connect 115 0 109 0;
#X connect 115 1 110 0;
#X connect 116 0 111 0;
#X connect 116 1 112 0;
#X connect 117 0 113 0;
#X connect 117 1 114 0;
#X connect 118 0 156 0;
#X connect 119 0 125 0;
#X connect 120 0 52 0;
#X connect 121 0 122 0;
#X connect 122 0 52 0;
#X connect 123 0 126 0;
#X connect 124 0 52 0;
#X connect 125 0 120 0;
#X connect 126 0 124 0;
#X connect 127 0 52 0;
#X connect 134 0 133 0;
#X connect 134 0 138 0;
#X connect 135 0 136 0;
#X connect 135 0 137 0;
#X connect 137 0 139 0;
#X connect 138 0 139 0;
#X connect 140 0 127 0;
#X connect 141 0 185 0;
#X connect 142 0 52 0;
#X connect 143 0 142 0;
#X connect 144 0 143 0;
#X connect 145 0 143 1;
#X connect 145 0 146 0;
#X connect 146 0 143 0;
#X connect 149 0 152 0;
#X connect 150 0 151 0;
#X connect 151 0 52 0;
#X connect 152 0 52 0;
#X connect 153 0 154 0;
#X connect 154 0 52 0;
#X connect 157 0 158 0;
#X connect 157 1 159 0;
#X connect 157 2 160 0;
#X connect 157 3 161 0;
#X connect 157 4 162 0;
#X connect 163 0 29 0;
#X connect 163 1 37 0;
#X connect 163 2 96 0;
#X connect 163 3 176 0;
#X connect 167 0 164 0;
#X connect 167 1 165 0;
#X connect 167 2 166 0;
#X connect 168 0 169 0;
#X connect 168 1 170 0;
#X connect 168 2 171 0;
#X connect 173 0 174 0;
#X connect 174 0 52 0;
#X connect 176 0 157 0;
#X connect 176 1 167 0;
#X connect 176 2 168 0;
#X connect 176 3 178 0;
#X connect 176 3 180 0;
#X connect 176 3 177 0;
#X connect 176 4 184 0;
#X connect 178 0 181 0;
#X connect 178 1 182 0;
#X connect 183 0 52 0;
#X connect 185 0 52 0;
#X coords 0 -1 1 1 170 210 2 -190 100;
#X restore 439 -9183 pd dispatch;
#X msg 147 -9200 127.0.0.1;
#X obj -5 -9058 joystick;
#X msg -5 -9075 1 512 1 512 1 128 1 128 5 128 5;
#X msg 439 -9200 ensatt;
#X msg 539 -9200 ensatt;
#X msg 227 -9200 192.168.1.12;
#N canvas 684 32 682 736 motor_control 0;
#X obj 141 175 tgl 15 0 motor_validate_s motor_validate_r Validate
17 7 0 10 -261234 -1 -1 0 1;
#X floatatom 106 174 5 0 0 2 Speed motor_speed_r motor_speed_s;
#X obj 141 195 tgl 15 0 motor_brake_s motor_brake_r Brake 17 7 0 10
-261234 -1 -1 0 1;
#X obj 141 215 tgl 15 0 motor_benable_s motor_enable_r Enable 17 7
0 10 -261234 -1 -1 0 1;
#X coords 0 -1 1 1 150 150 2 100 100;
#X restore 74 -8994 pd motor_control;
#N canvas 0 48 1366 720 motor_status 0;
#X restore 419 -8933 pd motor_status;
#X connect 3 0 0 0;
#X connect 5 0 4 0;
#X connect 6 0 2 0;
#X connect 7 0 2 1;
#X connect 8 0 0 0;
