#N canvas 4124 -609 1366 736 10;
#X declare -lib mrpeach/packOSC;
#X declare -lib mrpeach/udpsend;
#X declare -lib mrpeach/udpreceive;
#X declare -lib mrpeach/unpackOSC;
#X declare -lib mrpeach/routeOSC;
#X declare -lib mrpeach;
#N canvas 2164 -596 1366 720 config 1;
#X obj 486 321 route 1;
#X obj 486 -43 inlet;
#X obj 431 390 loadbang;
#X obj 496 17 r conf_dev_connect;
#X obj 506 57 r conf_dev_disconnect;
#X msg 506 77 disconnect;
#X obj 842 81 s conf_dev_bs;
#X obj 894 101 s conf_dev_from;
#X obj 558 184 r send_to_device;
#X obj 486 -23 unpack s;
#X obj 486 201 udpsend;
#X obj 791 61 route received total from multicast;
#X obj 704 2 r conf_dev_status;
#X obj 66 241 route 1;
#X obj 11 310 loadbang;
#X msg 704 22 status;
#X obj 444 346 s conf_send_r;
#X obj 66 221 r conf_send;
#X msg 66 294 \; conf_send_r color 16 6 22;
#X msg 105 327 \; conf_send_r color 13 3 22;
#X msg 486 374 \; conf_dev_status color 16 6 0;
#X msg 525 407 \; conf_dev_status color 13 3 0;
#X obj 791 101 s conf_dev_sb;
#X obj 101 101 cnv 14 373 14 empty empty empty 20 12 0 14 -233017 -66577
0;
#X obj 106 121 bng 16 250 50 0 conf_list_devices _null empty 17 7 0
10 -204786 -4034 -1;
#X obj 106 143 bng 16 250 50 0 conf_dev_disconnect _null_s Disconnect
17 7 0 10 -261234 -258113 -1;
#X obj 400 121 tgl 30 0 _null_snd conf_dev_status empty 17 7 0 10 -24198
-225271 -262144 1 1;
#X floatatom 238 183 7 0 230400 1 - conf_dev_bs _null_snd;
#X floatatom 358 183 7 0 230400 0 - conf_dev_sb _null_snd;
#X text 432 121 Device;
#X text 432 131 status;
#X obj 195 38 r conf_dev_from;
#X floatatom 238 161 3 0 0 1 . - -;
#X floatatom 268 161 3 0 0 1 . - -;
#X floatatom 298 161 3 0 0 1 . - -;
#X floatatom 328 161 3 0 0 1 : - -;
#X obj 195 58 unpack f f f f f;
#X text 402 182 Bytes recv;
#X text 282 182 Total bytes;
#X floatatom 358 161 4 0 0 0 - - -;
#X obj 106 183 bng 16 250 50 0 conf_dev_status _null empty 17 7 0 10
-204800 -4032 -1;
#X obj 400 157 tgl 14 0 conf_send conf_send_r Send 17 7 0 10 -24198
-225271 -1 1 1;
#X text 147 160 Receiving from;
#X text 122 182 Get status;
#X obj 689 154 spigot;
#X obj 722 134 r dispatch_debug;
#X obj 689 174 print receiving;
#X obj 704 61 unpackOSC;
#X obj 704 114 s osc_receive;
#X obj 704 42 udpreceive 7901;
#X text 122 120 Connect to 192.168.0.50:7900;
#X obj 74 -52 loadbang;
#X obj 74 -12 import mrpeach/packOSC;
#X obj 74 -32 import mrpeach/udpsend;
#X obj 224 -32 import mrpeach/udpreceive;
#X obj 224 -12 import mrpeach/unpackOSC;
#X obj 74 8 import mrpeach/routeOSC;
#X text 105 99 Connection;
#X obj 1076 17 r conf_dev_connect;
#X obj 1076 131 udpsend;
#X msg 1076 37 connect 192.168.1.255 7900;
#X obj 1096 97 r send_to_broadcast;
#X obj 1065 -3 loadbang;
#X msg 496 38 connect 192.168.0.50 6969;
#X msg 516 97 connect 127.0.0.1 6969;
#X msg 486 -3 connect \$1 6969;
#X connect 0 0 20 0;
#X connect 0 1 21 0;
#X connect 1 0 9 0;
#X connect 2 0 21 0;
#X connect 3 0 63 0;
#X connect 4 0 5 0;
#X connect 5 0 10 0;
#X connect 8 0 10 0;
#X connect 9 0 65 0;
#X connect 10 0 0 0;
#X connect 10 0 16 0;
#X connect 11 0 22 0;
#X connect 11 1 6 0;
#X connect 11 2 7 0;
#X connect 12 0 15 0;
#X connect 13 0 18 0;
#X connect 13 1 19 0;
#X connect 14 0 19 0;
#X connect 15 0 49 0;
#X connect 17 0 13 0;
#X connect 31 0 36 0;
#X connect 36 0 32 0;
#X connect 36 1 33 0;
#X connect 36 2 34 0;
#X connect 36 3 35 0;
#X connect 36 4 39 0;
#X connect 44 0 46 0;
#X connect 45 0 44 1;
#X connect 47 0 44 0;
#X connect 47 0 48 0;
#X connect 49 0 47 0;
#X connect 49 1 11 0;
#X connect 51 0 53 0;
#X connect 51 0 52 0;
#X connect 51 0 56 0;
#X connect 51 0 54 0;
#X connect 51 0 55 0;
#X connect 58 0 60 0;
#X connect 60 0 59 0;
#X connect 61 0 59 0;
#X connect 62 0 60 0;
#X connect 63 0 10 0;
#X connect 64 0 10 0;
#X connect 65 0 10 0;
#X coords 0 -1 1 1 375 104 2 100 100;
#X restore 60 -9183 pd config;
#X text 62 -9200 Custom device;
#N canvas 901 56 682 736 motor_control 0;
#X floatatom 104 190 10 0 0 2 Speed motor_speed_r motor_speed_s;
#X obj 174 211 tgl 15 0 motor_enable_s motor_enable_r Enable 17 7 0
10 -258699 -261689 -1 0 1;
#X obj 104 151 bng 15 250 50 0 motor_status_s motor_status_r Update_status
17 7 0 10 -262144 -1 -1;
#X obj 104 131 bng 15 250 50 0 armaz_request_announce_s armaz_request_announce_r
Request_announce 17 7 0 10 -262144 -1 -1;
#X obj 174 191 bng 15 250 50 0 motor_validate_s motor_validate_r Validate
17 7 0 10 -258699 -261689 -1;
#X obj 104 211 bng 15 250 50 0 motor_stop_s motor_stop_r Stop 17 7
0 10 -258113 -261234 -1;
#X obj 385 161 i 0;
#X obj 385 101 r motor_stop_s;
#X obj 397 135 t b b;
#X obj 433 167 s motor_validate_s;
#X obj 386 203 s motor_speed_r;
#X connect 6 0 10 0;
#X connect 7 0 8 0;
#X connect 8 0 6 0;
#X connect 8 1 9 0;
#X coords 0 -1 1 1 150 150 2 100 100;
#X restore 74 -8994 pd motor_control;
#N canvas 369 204 1366 720 motor_status 0;
#X obj 1 101 cnv 14 198 14 empty empty empty 20 12 0 14 -233017 -66577
0;
#X text 3 99 Status;
#X obj 5 119 tgl 15 0 _null motor_brake_r Brake 17 7 0 10 -258699 -261689
-1 0 1;
#X obj 5 139 tgl 15 0 _null motor_enable_r Enable 17 7 0 10 -258699
-261689 -1 0 1;
#X obj 105 119 tgl 15 0 _null motor_enable_input_r Enable_input 17
7 0 10 -258699 -261689 -1 0 1;
#X obj 105 139 tgl 15 0 _null motor_enable_ready_r Enable_ready 17
7 0 10 -258699 -261689 -1 0 1;
#X obj 383 39 r motor_brake;
#X obj 417 67 s motor_brake_r;
#X obj 383 249 r motor_enable;
#X obj 417 278 s motor_enable_r;
#X obj 627 278 s motor_enable_ready_r;
#X obj 593 249 r motor_enable_ready;
#X obj 593 39 r motor_enable_input;
#X obj 627 67 s motor_enable_input_r;
#X floatatom 5 178 5 0 0 2 Error_code motor_errorcode_r motor_errorcode_s
;
#X obj 383 459 r motor_errorcode;
#X obj 417 488 s motor_errorcode_r;
#X obj 593 459 r drive_temperature;
#X obj 627 488 s drive_temperature_r;
#X floatatom 105 178 7 0 0 2 Drive_temp drive_temperature_r drive_temperature_s
;
#X obj 383 87 route 1;
#X msg 383 107 \; motor_brake_r color 16 16 22;
#X msg 422 147 \; motor_brake_r color 13 13 22;
#X obj 593 87 route 1;
#X msg 593 107 \; motor_enable_input_r color 16 16 22;
#X msg 632 147 \; motor_enable_input_r color 13 13 22;
#X msg 383 318 \; motor_enable_r color 16 16 22;
#X msg 422 358 \; motor_enable_r color 13 13 22;
#X obj 383 298 route 1;
#X obj 593 298 route 1;
#X msg 593 319 \; motor_enable_ready_r color 16 16 22;
#X msg 632 358 \; motor_enable_ready_r color 13 13 22;
#X connect 6 0 7 0;
#X connect 6 0 20 0;
#X connect 8 0 9 0;
#X connect 8 0 28 0;
#X connect 11 0 10 0;
#X connect 11 0 29 0;
#X connect 12 0 13 0;
#X connect 12 0 23 0;
#X connect 15 0 16 0;
#X connect 17 0 18 0;
#X connect 20 0 21 0;
#X connect 20 1 22 0;
#X connect 23 0 24 0;
#X connect 23 1 25 0;
#X connect 28 0 26 0;
#X connect 28 1 27 0;
#X connect 29 0 30 0;
#X connect 29 1 31 0;
#X coords 0 -1 1 1 200 200 1 0 100;
#X restore 419 -8933 pd motor_status;
#N canvas 1986 0 1366 720 dispatch 0;
#X obj -282 687 s send_to_device;
#X obj -282 627 packOSC;
#X obj -249 647 r conf_send;
#X obj -282 667 spigot;
#X obj 870 669 s osc_send;
#X obj -282 607 r osc_send;
#X obj 0 -67 r osc_receive;
#X obj 304 -137 loadbang;
#X obj -189 -39 import mrpeach;
#X obj -189 -64 loadbang;
#X obj 0 322 routeOSC /return;
#X msg 451 377 send /osc/restart;
#X msg 624 251 sendtyped /config/set ssi osc server_port \$1;
#X obj 45 -22 print received;
#X msg 401 432 send /motor/status;
#X obj 64 78 s motor_brake;
#X obj 139 98 s motor_enable;
#X obj 215 78 s motor_enable_input;
#X obj 401 412 r motor_status_s;
#X obj 0 13 routeOSC /setup /status;
#X obj 64 34 routeOSC /motor;
#X obj 291 98 s motor_enable_ready;
#X obj 624 231 unpack f;
#X obj 624 211 f;
#X obj 639 191 r cf_osc_server_port_s;
#X obj 624 171 r cf_osc_update;
#X msg 304 -47 \; motor_brake_r color 13 3 22 \; motor_enable_r color
13 3 22 \; motor_enable_input_r color 13 3 22 \; motor_enable_ready_r
color 13 3 22;
#X msg 303 -117 \; motor_validate_r color 13 3 22;
#X obj 64 55 routeOSC /brake /enable /enable_input /enable_ready;
#X obj 367 138 s motor_error_code;
#X obj 181 532 r armaz_request_announce_s;
#X msg 181 552 send /request/announce;
#X obj 181 572 s osc_send_broadcast;
#X obj -162 627 packOSC;
#X obj -129 647 r conf_send;
#X obj -162 667 spigot;
#X obj -162 607 r osc_send_broadcast;
#X obj -162 687 s send_to_broadcast;
#X obj 367 118 routeOSC /error_code /drive_temperature;
#X obj 482 158 s drive_temperature;
#X obj 462 287 r motor_enable_s;
#X msg 462 307 sendtyped /debug/drive/driveEnable i \$1;
#X msg 751 357 sendtyped /debug/drive/speed f \$1;
#X obj 751 337 f;
#X obj 751 297 r motor_validate_s;
#X obj 766 317 r motor_speed_s;
#X connect 1 0 3 0;
#X connect 2 0 3 1;
#X connect 3 0 0 0;
#X connect 5 0 1 0;
#X connect 6 0 13 0;
#X connect 6 0 19 0;
#X connect 7 0 27 0;
#X connect 7 0 26 0;
#X connect 9 0 8 0;
#X connect 11 0 4 0;
#X connect 12 0 4 0;
#X connect 14 0 4 0;
#X connect 18 0 14 0;
#X connect 19 0 10 0;
#X connect 19 1 20 0;
#X connect 20 0 28 0;
#X connect 22 0 12 0;
#X connect 23 0 22 0;
#X connect 24 0 23 1;
#X connect 25 0 23 0;
#X connect 28 0 15 0;
#X connect 28 1 16 0;
#X connect 28 2 17 0;
#X connect 28 3 21 0;
#X connect 28 4 38 0;
#X connect 30 0 31 0;
#X connect 31 0 32 0;
#X connect 33 0 35 0;
#X connect 34 0 35 1;
#X connect 35 0 37 0;
#X connect 36 0 33 0;
#X connect 38 0 29 0;
#X connect 38 1 39 0;
#X connect 40 0 41 0;
#X connect 41 0 4 0;
#X connect 42 0 4 0;
#X connect 43 0 42 0;
#X connect 44 0 43 0;
#X connect 45 0 43 1;
#X coords 0 -1 1 1 170 210 2 -190 100;
#X restore 439 -9183 pd dispatch;
#X msg 147 -9200 192.168.1.31;
#X msg 228 -9200 192.168.100.24;
#X connect 5 0 0 0;
#X connect 6 0 0 0;
