#N canvas 2121 187 1366 736 10;
#X declare -lib mrpeach/packOSC;
#X declare -lib mrpeach/udpsend;
#X declare -lib mrpeach/udpreceive;
#X declare -lib mrpeach/unpackOSC;
#X declare -lib mrpeach/routeOSC;
#X declare -lib mrpeach;
#N canvas 457 32 1193 736 config 0;
#X obj 486 321 route 1;
#X obj 486 -43 inlet;
#X obj 431 390 loadbang;
#X obj 496 17 r conf_dev_connect;
#X obj 506 57 r conf_dev_disconnect;
#X msg 506 77 disconnect;
#X obj 842 261 s conf_dev_bs;
#X obj 894 301 s conf_dev_from;
#X obj 808 184 r send_to_device;
#X obj 486 -23 unpack s;
#X obj 486 201 udpsend;
#X obj 791 221 route received total from multicast;
#X obj 704 2 r conf_dev_status;
#X obj 66 241 route 1;
#X obj 11 310 loadbang;
#X msg 704 22 status;
#X obj 444 346 s conf_send_r;
#X obj 66 221 r conf_send;
#X msg 66 294 \; conf_send_r color 16 6 22;
#X msg 105 327 \; conf_send_r color 13 3 22;
#X msg 486 374 \; conf_dev_status color 16 6 0;
#X msg 525 407 \; conf_dev_status color 13 3 0;
#X obj 791 281 s conf_dev_sb;
#X obj 101 101 cnv 14 373 14 empty empty empty 20 12 0 14 -233017 -66577
0;
#X obj 106 121 bng 16 250 50 0 conf_list_devices _null empty 17 7 0
10 -204786 -4034 -1;
#X obj 106 143 bng 16 250 50 0 conf_dev_disconnect _null_s Disconnect
17 7 0 10 -261234 -258113 -1;
#X obj 400 121 tgl 30 0 _null_snd conf_dev_status empty 17 7 0 10 -24198
-225271 -262144 0 1;
#X floatatom 238 183 7 0 230400 1 - conf_dev_bs _null_snd;
#X floatatom 358 183 7 0 230400 0 - conf_dev_sb _null_snd;
#X text 432 121 Device;
#X text 432 131 status;
#X obj 195 38 r conf_dev_from;
#X floatatom 238 161 3 0 0 1 . - -;
#X floatatom 268 161 3 0 0 1 . - -;
#X floatatom 298 161 3 0 0 1 . - -;
#X floatatom 328 161 3 0 0 1 : - -;
#X obj 195 58 unpack f f f f f;
#X text 402 182 Bytes recv;
#X text 282 182 Total bytes;
#X floatatom 358 161 4 0 0 0 - - -;
#X obj 106 183 bng 16 250 50 0 conf_dev_status _null empty 17 7 0 10
-204800 -4032 -1;
#X obj 400 157 tgl 14 0 conf_send conf_send_r Send 17 7 0 10 -24198
-225271 -1 1 1;
#X text 147 160 Receiving from;
#X text 122 182 Get status;
#X text 105 99 Motherboard;
#X obj 954 76 spigot;
#X obj 987 56 r dispatch_debug;
#X obj 954 96 print receiving;
#X obj 848 59 unpackOSC;
#X obj 848 112 s osc_receive;
#X msg 486 -3 connect \$1 7900;
#X msg 496 37 connect 192.168.0.50 7900;
#X msg 516 97 connect 127.0.0.1 7900;
#X obj 704 42 udpreceive 7901;
#X text 122 120 Connect to 192.168.0.50:7900;
#X obj 74 -52 loadbang;
#X obj 74 -12 import mrpeach/packOSC;
#X obj 74 -32 import mrpeach/udpsend;
#X obj 224 -32 import mrpeach/udpreceive;
#X obj 224 -12 import mrpeach/unpackOSC;
#X obj 74 8 import mrpeach/routeOSC;
#X connect 0 0 20 0;
#X connect 0 1 21 0;
#X connect 1 0 9 0;
#X connect 2 0 21 0;
#X connect 3 0 51 0;
#X connect 4 0 5 0;
#X connect 5 0 10 0;
#X connect 8 0 10 0;
#X connect 9 0 50 0;
#X connect 10 0 0 0;
#X connect 10 0 16 0;
#X connect 11 0 22 0;
#X connect 11 1 6 0;
#X connect 11 2 7 0;
#X connect 12 0 15 0;
#X connect 13 0 18 0;
#X connect 13 1 19 0;
#X connect 14 0 19 0;
#X connect 15 0 53 0;
#X connect 17 0 13 0;
#X connect 31 0 36 0;
#X connect 36 0 32 0;
#X connect 36 1 33 0;
#X connect 36 2 34 0;
#X connect 36 3 35 0;
#X connect 36 4 39 0;
#X connect 45 0 47 0;
#X connect 46 0 45 1;
#X connect 48 0 45 0;
#X connect 48 0 49 0;
#X connect 50 0 10 0;
#X connect 51 0 10 0;
#X connect 52 0 10 0;
#X connect 53 0 48 0;
#X connect 53 1 11 0;
#X connect 55 0 57 0;
#X connect 55 0 56 0;
#X connect 55 0 60 0;
#X connect 55 0 58 0;
#X connect 55 0 59 0;
#X coords 0 -1 1 1 375 104 2 100 100;
#X restore 60 -9183 pd config;
#X text 62 -9200 Custom device;
#N canvas 1021 103 682 736 motor_control 0;
#X obj 141 175 tgl 15 0 motor_validate_s motor_validate_r Validate
17 7 0 10 -258699 -261689 -1 0 1;
#X floatatom 106 174 5 0 0 2 Speed motor_speed_r motor_speed_s;
#X obj 141 195 tgl 15 0 motor_brake_s motor_brake_r Brake 17 7 0 10
-24198 -225271 -1 1 1;
#X obj 141 215 tgl 15 0 motor_benable_s motor_enable_r Enable 17 7
0 10 -258699 -261689 -1 0 1;
#X obj 121 116 bng 15 250 50 0 motor_status_s motor_status_r Update_status
17 7 0 10 -262144 -1 -1;
#X coords 0 -1 1 1 150 150 2 100 100;
#X restore 74 -8994 pd motor_control;
#N canvas 633 113 1366 720 motor_status 0;
#X obj 1 101 cnv 14 198 14 empty empty empty 20 12 0 14 -233017 -66577
0;
#X text 3 99 Status;
#X obj 5 119 tgl 15 0 _null motor_brake_r Brake 17 7 0 10 -24198 -225271
-1 1 1;
#X obj 5 139 tgl 15 0 _null motor_enable_r Enable 17 7 0 10 -258699
-261689 -1 0 1;
#X obj 105 119 tgl 15 0 _null motor_enable_input_r Enable_input 17
7 0 10 -24198 -225271 -1 1 1;
#X obj 105 139 tgl 15 0 _null motor_enable_ready_r Enable_ready 17
7 0 10 -258699 -261689 -1 0 1;
#X obj 372 132 + 10;
#X obj 372 152 pack f f;
#X obj 383 39 r motor_brake;
#X msg 372 173 \; motor_brake_r color \$1 \$2 22;
#X obj 383 79 * 3;
#X obj 383 99 + 3;
#X obj 417 68 s motor_brake_r;
#X obj 372 342 + 10;
#X obj 372 362 pack f f;
#X obj 383 289 * 3;
#X obj 383 309 + 3;
#X obj 582 342 + 10;
#X obj 582 362 pack f f;
#X obj 593 289 * 3;
#X obj 593 309 + 3;
#X obj 582 132 + 10;
#X obj 582 152 pack f f;
#X obj 593 79 * 3;
#X obj 593 99 + 3;
#X obj 383 249 r motor_enable;
#X obj 417 278 s motor_enable_r;
#X msg 372 383 \; motor_enable_r color \$1 \$2 22;
#X msg 582 383 \; motor_enable_ready_r color \$1 \$2 22;
#X obj 627 278 s motor_enable_ready_r;
#X obj 593 249 r motor_enable_ready;
#X obj 593 39 r motor_enable_input;
#X obj 627 67 s motor_enable_input_r;
#X msg 582 173 \; motor_enable_input_r color \$1 \$2 22;
#X floatatom 5 178 5 0 0 2 Error_code motor_errorcode_r motor_errorcode_s
;
#X obj 372 552 + 10;
#X obj 372 572 pack f f;
#X obj 383 499 * 3;
#X obj 383 519 + 3;
#X obj 383 459 r motor_errorcode;
#X obj 417 488 s motor_errorcode_r;
#X msg 372 593 \; motor_errorcode_r color \$1 \$2 22;
#X connect 6 0 7 0;
#X connect 7 0 9 0;
#X connect 8 0 10 0;
#X connect 8 0 12 0;
#X connect 10 0 11 0;
#X connect 11 0 6 0;
#X connect 11 0 7 1;
#X connect 13 0 14 0;
#X connect 14 0 27 0;
#X connect 15 0 16 0;
#X connect 16 0 13 0;
#X connect 16 0 14 1;
#X connect 17 0 18 0;
#X connect 18 0 28 0;
#X connect 19 0 20 0;
#X connect 20 0 17 0;
#X connect 20 0 18 1;
#X connect 21 0 22 0;
#X connect 22 0 33 0;
#X connect 23 0 24 0;
#X connect 24 0 21 0;
#X connect 24 0 22 1;
#X connect 25 0 15 0;
#X connect 25 0 26 0;
#X connect 30 0 19 0;
#X connect 30 0 29 0;
#X connect 31 0 23 0;
#X connect 31 0 32 0;
#X connect 35 0 36 0;
#X connect 36 0 41 0;
#X connect 37 0 38 0;
#X connect 38 0 35 0;
#X connect 38 0 36 1;
#X connect 39 0 37 0;
#X connect 39 0 40 0;
#X coords 0 -1 1 1 200 200 1 0 100;
#X restore 419 -8933 pd motor_status;
#N canvas 2242 183 1366 720 dispatch 0;
#X obj -282 707 s send_to_device;
#X obj -282 627 packOSC;
#X obj -249 647 r conf_send;
#X obj -282 667 spigot;
#X obj 870 669 s osc_send;
#X obj -226 582 r osc_send;
#X obj 0 -67 r osc_receive;
#X obj 304 -137 loadbang;
#X obj -189 -39 import mrpeach;
#X obj -189 -64 loadbang;
#X obj 0 322 routeOSC /return;
#X msg 451 377 send /osc/restart;
#X msg 624 251 sendtyped /config/set ssi osc server_port \$1;
#X obj 45 -22 print received;
#X msg 401 432 send /motor/status;
#X obj 64 78 s motor_brake;
#X obj 139 98 s motor_enable;
#X obj 215 78 s motor_enable_input;
#X obj 401 412 r motor_status_s;
#X obj 0 13 routeOSC /setup /status;
#X obj 64 34 routeOSC /motor;
#X obj 291 98 s motor_enable_ready;
#X obj 624 231 unpack f;
#X obj 624 211 f;
#X obj 639 191 r cf_osc_server_port_s;
#X obj 624 171 r cf_osc_update;
#X msg 304 -47 \; motor_brake_r color 13 3 22 \; motor_enable_r color
13 3 22 \; motor_enable_input_r color 13 3 22 \; motor_enable_ready_r
color 13 3 22;
#X msg 303 -117 \; motor_validate_r color 13 3 22;
#X obj 64 55 routeOSC /brake /enable /enable_input /enable_ready;
#X obj 367 118 routeOSC /error_code;
#X obj 367 138 s motor_error_code;
#X connect 1 0 3 0;
#X connect 2 0 3 1;
#X connect 3 0 0 0;
#X connect 5 0 1 0;
#X connect 6 0 13 0;
#X connect 6 0 19 0;
#X connect 7 0 27 0;
#X connect 7 0 26 0;
#X connect 9 0 8 0;
#X connect 11 0 4 0;
#X connect 12 0 4 0;
#X connect 14 0 4 0;
#X connect 18 0 14 0;
#X connect 19 0 10 0;
#X connect 19 1 20 0;
#X connect 20 0 28 0;
#X connect 22 0 12 0;
#X connect 23 0 22 0;
#X connect 24 0 23 1;
#X connect 25 0 23 0;
#X connect 28 0 15 0;
#X connect 28 1 16 0;
#X connect 28 2 17 0;
#X connect 28 3 21 0;
#X connect 28 4 29 0;
#X connect 29 0 30 0;
#X coords 0 -1 1 1 170 210 2 -190 100;
#X restore 439 -9183 pd dispatch;
#X msg 227 -9200 192.168.1.12;
#X msg 147 -9200 192.168.1.31;
#X connect 5 0 0 0;
#X connect 6 0 0 0;
